<?xml version="1.0" encoding="utf-8"?>
<!-- Generator: Adobe Illustrator 18.1.1, SVG Export Plug-In . SVG Version: 6.00 Build 0)  -->
<svg version="1.1" id="Layer_1" xmlns="http://www.w3.org/2000/svg" xmlns:xlink="http://www.w3.org/1999/xlink" x="0px" y="0px"
	 width="599.2px" height="625px" viewBox="0 0 599.2 625" style="enable-background:new 0 0 599.2 625;" xml:space="preserve">
<style type="text/css">
	.st0{fill:#512200;stroke:#512200;stroke-miterlimit:10;}
</style>
<g>
	<g>
		<path class="st0" d="M492.4,267.8c6.3,24.8,9.8,51.3,9.8,78.8c0,3.2-0.1,6.4-0.2,9.5l31.3,12.6l26-22.1l19.8,24.2l-38.8,33.1
			L499.7,387c-4.6,36.9-15.5,71.2-31.1,101.1l5.6-7.8l30.4,17.9l28.8-18l16.1,26.8l-43.2,27l-47.6-28.7c-37.2,59.7-94.9,98-159.7,98
			c-64.6,0-122.2-38.2-159.4-97.6L92.6,534l-43.2-27l16.1-26.8l28.8,18l30.4-17.9l2.2,3c-14.3-28.6-24.2-61-28.7-95.7L59,403.9
			l-38.8-33.1L40,346.6l25.9,22.1l30-12.1c-0.1-3.4-0.2-6.7-0.2-10.1c0-27.5,3.5-54,9.8-78.9l-50.6-1.9l-22.1-46.5l27.8-13.7
			l14.7,31.1l35.1,1.7l0.6,10.4c21-64.3,62-115.4,113.3-141c1-19.7,16.8-35.4,36.4-35.4h85c20.2,0,36.6,16.7,36.6,37.3
			c0,0.9-0.2,1.7-0.3,2.6c48.2,27.3,86.5,77.7,106,140.1l0.8-14l35.1-1.7l14.7-31.1l27.8,13.7l-22.1,46.5L492.4,267.8z"/>
		<polygon class="st0" points="401.8,39.4 397.8,50.4 391.6,53.3 378.6,56.9 367.8,63.7 352.5,72.4 352.5,63.7 369.7,51.1 
			382.3,47.2 393.3,39.4 399.7,26.4 412,22 408.6,34.2 		"/>
		<polygon class="st0" points="227.8,56.9 214.8,53.3 208.6,50.4 204.6,39.4 197.8,34.2 194.4,22 206.7,26.4 213.1,39.4 224.1,47.2 
			236.7,51.1 253.9,63.7 253.9,72.4 238.6,63.7 		"/>
	</g>
</g>
<g>
</g>
<g>
</g>
<g>
</g>
<g>
</g>
<g>
</g>
<g>
</g>
<g>
</g>
<g>
</g>
<g>
</g>
<g>
</g>
<g>
</g>
<g>
</g>
<g>
</g>
<g>
</g>
<g>
</g>
</svg>
