<svg xmlns="http://www.w3.org/2000/svg" width="599.2" height="625" viewBox="0 0 599.2 625"><style type="text/css">.st0{fill:#512200;stroke:#512200;stroke-miterlimit:10;}</style><path class="st0" d="M492.4 267.8c6.3 24.8 9.8 51.3 9.8 78.8 0 3.2-.1 6.4-.2 9.5l31.3 12.6 26-22.1 19.8 24.2-38.8 33.1-40.6-16.9c-4.6 36.9-15.5 71.2-31.1 101.1l5.6-7.8 30.4 17.9 28.8-18 16.1 26.8-43.2 27-47.6-28.7c-37.2 59.7-94.9 98-159.7 98-64.6 0-122.2-38.2-159.4-97.6l-47 28.3-43.2-27 16.1-26.8 28.8 18 30.4-17.9 2.2 3c-14.3-28.6-24.2-61-28.7-95.7l-39.2 16.3-38.8-33.1 19.8-24.2 25.9 22.1 30-12.1c-.1-3.4-.2-6.7-.2-10.1 0-27.5 3.5-54 9.8-78.9l-50.6-1.9-22.1-46.5 27.8-13.7 14.7 31.1 35.1 1.7.6 10.4c21-64.3 62-115.4 113.3-141 1-19.7 16.8-35.4 36.4-35.4h85c20.2 0 36.6 16.7 36.6 37.3 0 .9-.2 1.7-.3 2.6 48.2 27.3 86.5 77.7 106 140.1l.8-14 35.1-1.7 14.7-31.1 27.8 13.7-22.1 46.5-51.9 2.1zM401.8 39.4l-4 11-6.2 2.9-13 3.6-10.8 6.8-15.3 8.7v-8.7l17.2-12.6 12.6-3.9 11-7.8 6.4-13 12.3-4.4-3.4 12.2zM227.8 56.9l-13-3.6-6.2-2.9-4-11-6.8-5.2-3.4-12.2 12.3 4.4 6.4 13 11 7.8 12.6 3.9 17.2 12.6v8.7l-15.3-8.7z"/></svg>